<?xml version="1.0" encoding="UTF-8"?>
<svg xmlns="http://www.w3.org/2000/svg" xmlns:xlink="http://www.w3.org/1999/xlink" width="115px" height="115px" viewBox="0 0 115 115" version="1.1">
<defs>
<clipPath id="clip1">
  <path d="M 42.953125 32.792969 L 72.066406 32.792969 L 72.066406 60.734375 L 42.953125 60.734375 Z M 42.953125 32.792969 "/>
</clipPath>
</defs>
<g id="surface1">
<g clip-path="url(#clip1)" clip-rule="nonzero">
<path style=" stroke:none;fill-rule:nonzero;fill:rgb(6.27451%,6.666667%,37.64706%);fill-opacity:1;" d="M 69.652344 48.023438 L 69.226562 47.570312 C 69.328125 47.527344 69.410156 47.4375 69.476562 47.390625 C 69.582031 47.257812 72.046875 44.113281 72.046875 41.195312 C 72.046875 41.148438 71.957031 33.828125 63.9375 33.015625 C 63.78125 32.972656 60.210938 32.34375 57.5 34.632812 C 56.625 33.960938 54.824219 32.792969 51.117188 32.972656 C 43.460938 33.734375 42.953125 41.101562 42.953125 41.195312 C 42.945312 42.453125 43.128906 43.664062 43.496094 44.875 C 43.867188 46.089844 44.410156 47.210938 45.121094 48.246094 C 44.925781 48.46875 44.777344 48.785156 44.671875 49.054688 C 44.597656 49.28125 44.554688 49.503906 44.546875 49.773438 C 44.539062 50 44.566406 50.222656 44.621094 50.445312 C 44.683594 50.671875 44.773438 50.898438 44.890625 51.078125 C 45.015625 51.257812 45.160156 51.4375 45.335938 51.617188 C 45.558594 51.839844 45.824219 52.019531 46.125 52.15625 C 46.429688 52.335938 46.75 52.378906 47.082031 52.378906 L 47.304688 52.378906 C 47.273438 52.738281 47.324219 53.097656 47.457031 53.457031 C 47.59375 53.816406 47.800781 54.085938 48.074219 54.355469 C 48.300781 54.578125 48.5625 54.804688 48.867188 54.9375 C 49.175781 55.074219 49.492188 55.117188 49.828125 55.117188 L 50.042969 55.117188 C 50.023438 55.523438 50.085938 55.835938 50.222656 56.195312 C 50.359375 56.511719 50.5625 56.828125 50.832031 57.050781 C 51.054688 57.320312 51.320312 57.5 51.625 57.632812 C 51.925781 57.769531 52.242188 57.859375 52.578125 57.859375 L 52.796875 57.859375 C 52.769531 58.21875 52.820312 58.578125 52.960938 58.9375 C 53.09375 59.25 53.296875 59.566406 53.570312 59.789062 C 53.796875 60.0625 54.0625 60.242188 54.363281 60.375 C 54.667969 60.507812 54.984375 60.601562 55.316406 60.601562 C 55.664062 60.601562 55.996094 60.507812 56.316406 60.375 C 56.636719 60.242188 56.921875 60.0625 57.171875 59.789062 L 57.476562 59.523438 L 57.8125 59.835938 C 58.058594 60.0625 58.335938 60.285156 58.648438 60.421875 C 58.964844 60.554688 59.289062 60.601562 59.632812 60.601562 C 59.96875 60.601562 60.289062 60.554688 60.59375 60.421875 C 60.898438 60.285156 61.164062 60.105469 61.390625 59.835938 C 61.664062 59.566406 61.867188 59.296875 62 58.9375 C 62.136719 58.578125 62.191406 58.21875 62.160156 57.859375 L 62.378906 57.859375 C 62.71875 57.859375 63.042969 57.8125 63.355469 57.679688 C 63.667969 57.546875 63.9375 57.320312 64.167969 57.09375 C 64.441406 56.828125 64.644531 56.554688 64.785156 56.195312 C 64.917969 55.835938 64.96875 55.476562 64.9375 55.117188 C 65.117188 55.117188 65.296875 55.117188 65.476562 55.074219 C 65.65625 55.074219 65.832031 55.03125 66.003906 54.9375 C 66.171875 54.894531 66.332031 54.804688 66.484375 54.671875 C 66.632812 54.578125 66.773438 54.492188 66.902344 54.355469 C 67.03125 54.21875 67.148438 54.085938 67.25 53.953125 C 67.347656 53.773438 67.429688 53.636719 67.496094 53.457031 C 67.566406 53.277344 67.613281 53.097656 67.644531 52.917969 C 67.675781 52.738281 67.6875 52.558594 67.683594 52.378906 C 68.046875 52.421875 68.402344 52.335938 68.742188 52.199219 C 69.082031 52.0625 69.375 51.882812 69.621094 51.617188 C 69.792969 51.4375 69.9375 51.257812 70.058594 51.078125 C 70.175781 50.898438 70.265625 50.671875 70.324219 50.445312 C 70.382812 50.222656 70.410156 50 70.402344 49.773438 C 70.394531 49.546875 70.355469 49.324219 70.28125 49.101562 C 70.148438 48.695312 69.9375 48.335938 69.652344 48.023438 Z M 57.957031 35.847656 C 60.242188 33.601562 63.675781 34.1875 63.761719 34.230469 C 70.726562 34.90625 70.835938 40.96875 70.835938 41.195312 C 70.835938 43.710938 68.550781 46.585938 68.53125 46.628906 C 68.507812 46.628906 68.488281 46.671875 68.46875 46.71875 L 60.53125 37.734375 L 60.496094 37.734375 C 60.488281 37.734375 60.472656 37.6875 60.445312 37.644531 L 59.738281 37.644531 L 59.703125 37.6875 L 55.25 42.136719 C 55.191406 42.226562 55.125 42.273438 55.054688 42.316406 C 54.980469 42.359375 54.90625 42.40625 54.824219 42.453125 C 54.746094 42.496094 54.65625 42.539062 54.570312 42.539062 C 54.484375 42.539062 54.398438 42.585938 54.308594 42.585938 C 54.21875 42.585938 54.132812 42.539062 54.042969 42.539062 C 53.957031 42.539062 53.875 42.496094 53.792969 42.453125 C 53.710938 42.40625 53.632812 42.359375 53.5625 42.316406 C 53.488281 42.273438 53.425781 42.226562 53.367188 42.136719 C 53.300781 42.09375 53.242188 42 53.191406 41.957031 C 53.140625 41.867188 53.09375 41.820312 53.058594 41.734375 C 53.027344 41.640625 52.996094 41.554688 52.976562 41.460938 C 52.960938 41.375 52.949219 41.28125 52.949219 41.195312 C 52.949219 41.101562 52.960938 41.015625 52.976562 40.921875 C 52.996094 40.878906 53.027344 40.789062 53.058594 40.699219 C 53.09375 40.609375 53.140625 40.519531 53.191406 40.476562 C 53.242188 40.382812 53.300781 40.339844 53.367188 40.25 Z M 48.074219 50.71875 C 47.792969 50.984375 47.460938 51.121094 47.082031 51.164062 C 46.722656 51.121094 46.425781 50.984375 46.1875 50.71875 C 46.121094 50.671875 46.0625 50.582031 46.011719 50.539062 C 45.957031 50.445312 45.917969 50.359375 45.878906 50.3125 C 45.839844 50.222656 45.8125 50.132812 45.796875 50.042969 C 45.777344 49.953125 45.769531 49.863281 45.769531 49.773438 C 45.769531 49.683594 45.777344 49.59375 45.796875 49.503906 C 45.8125 49.414062 45.839844 49.324219 45.878906 49.28125 C 45.917969 49.1875 45.957031 49.101562 46.011719 49.054688 C 46.0625 48.964844 46.121094 48.921875 46.1875 48.828125 L 48.921875 46.089844 C 49.203125 45.820312 49.535156 45.6875 49.917969 45.640625 C 50.277344 45.6875 50.574219 45.820312 50.816406 46.089844 C 50.878906 46.132812 50.9375 46.226562 50.988281 46.269531 C 51.042969 46.359375 51.085938 46.449219 51.121094 46.492188 C 51.15625 46.585938 51.1875 46.671875 51.203125 46.765625 C 51.222656 46.851562 51.230469 46.945312 51.234375 47.03125 C 51.234375 47.125 51.226562 47.210938 51.210938 47.304688 C 51.191406 47.390625 51.164062 47.4375 51.132812 47.527344 C 51.097656 47.617188 51.054688 47.707031 51.003906 47.75 C 50.953125 47.84375 50.898438 47.886719 50.832031 47.976562 Z M 49.828125 53.90625 C 49.464844 53.859375 49.164062 53.726562 48.929688 53.457031 C 48.863281 53.414062 48.804688 53.320312 48.753906 53.277344 C 48.703125 53.1875 48.660156 53.097656 48.625 53.054688 C 48.585938 52.960938 48.5625 52.875 48.542969 52.78125 C 48.523438 52.695312 48.515625 52.601562 48.515625 52.515625 C 48.515625 52.421875 48.523438 52.335938 48.542969 52.242188 C 48.5625 52.15625 48.585938 52.0625 48.625 52.019531 C 48.660156 51.929688 48.703125 51.839844 48.753906 51.796875 C 48.804688 51.703125 48.863281 51.617188 48.929688 51.570312 L 51.675781 48.828125 C 51.949219 48.5625 52.277344 48.425781 52.652344 48.425781 C 53.007812 48.425781 53.308594 48.5625 53.539062 48.828125 C 53.605469 48.921875 53.667969 48.964844 53.71875 49.054688 C 53.769531 49.101562 53.8125 49.1875 53.847656 49.28125 C 53.886719 49.324219 53.914062 49.414062 53.929688 49.503906 C 53.949219 49.59375 53.960938 49.683594 53.960938 49.773438 C 53.960938 49.863281 53.949219 49.953125 53.929688 50.042969 C 53.914062 50.132812 53.886719 50.222656 53.847656 50.3125 C 53.8125 50.359375 53.769531 50.445312 53.71875 50.539062 C 53.667969 50.582031 53.605469 50.671875 53.539062 50.71875 L 50.832031 53.457031 C 50.546875 53.726562 50.210938 53.859375 49.828125 53.90625 Z M 53.558594 56.195312 C 53.277344 56.46875 52.949219 56.601562 52.566406 56.648438 C 52.207031 56.601562 51.910156 56.46875 51.675781 56.195312 C 51.609375 56.152344 51.550781 56.0625 51.5 56.015625 C 51.445312 55.929688 51.402344 55.835938 51.367188 55.792969 C 51.332031 55.703125 51.304688 55.613281 51.285156 55.523438 C 51.265625 55.433594 51.257812 55.34375 51.257812 55.253906 C 51.257812 55.164062 51.265625 55.074219 51.285156 54.984375 C 51.304688 54.894531 51.332031 54.804688 51.367188 54.757812 C 51.402344 54.671875 51.445312 54.578125 51.5 54.535156 C 51.550781 54.445312 51.609375 54.355469 51.675781 54.3125 L 54.414062 51.617188 C 54.695312 51.34375 55.023438 51.210938 55.402344 51.164062 C 55.757812 51.210938 56.054688 51.34375 56.289062 51.617188 C 56.351562 51.660156 56.414062 51.703125 56.464844 51.796875 C 56.515625 51.882812 56.558594 51.929688 56.59375 52.019531 C 56.632812 52.109375 56.660156 52.199219 56.675781 52.289062 C 56.699219 52.378906 56.703125 52.46875 56.703125 52.558594 C 56.703125 52.648438 56.699219 52.738281 56.675781 52.828125 C 56.660156 52.875 56.632812 52.960938 56.59375 53.054688 C 56.558594 53.140625 56.515625 53.234375 56.464844 53.277344 C 56.414062 53.367188 56.351562 53.414062 56.289062 53.5 Z M 56.289062 58.9375 C 56.003906 59.207031 55.671875 59.34375 55.285156 59.386719 C 54.929688 59.34375 54.632812 59.207031 54.398438 58.9375 C 54.332031 58.890625 54.273438 58.804688 54.21875 58.757812 C 54.167969 58.667969 54.125 58.625 54.089844 58.53125 C 54.054688 58.445312 54.027344 58.351562 54.007812 58.265625 C 53.988281 58.171875 53.976562 58.085938 53.976562 57.992188 C 53.976562 57.90625 53.988281 57.8125 54.007812 57.726562 C 54.027344 57.632812 54.054688 57.589844 54.089844 57.5 C 54.125 57.410156 54.167969 57.320312 54.21875 57.273438 C 54.273438 57.1875 54.332031 57.140625 54.398438 57.050781 L 57.132812 54.3125 C 57.417969 54.039062 57.746094 53.90625 58.121094 53.90625 C 58.480469 53.90625 58.777344 54.039062 59.015625 54.3125 C 59.183594 54.445312 59.304688 54.625 59.378906 54.851562 C 59.449219 55.074219 59.460938 55.253906 59.417969 55.476562 C 59.402344 55.523438 59.394531 55.570312 59.382812 55.613281 C 59.308594 55.835938 59.1875 56.015625 59.015625 56.195312 Z M 60.53125 58.9375 C 60.472656 59.027344 60.40625 59.070312 60.332031 59.117188 C 60.261719 59.164062 60.183594 59.207031 60.105469 59.25 C 60.023438 59.296875 59.9375 59.296875 59.851562 59.34375 C 59.765625 59.34375 59.675781 59.34375 59.585938 59.34375 C 59.5 59.34375 59.410156 59.34375 59.324219 59.34375 C 59.238281 59.296875 59.152344 59.296875 59.070312 59.25 C 58.992188 59.207031 58.914062 59.164062 58.839844 59.117188 C 58.769531 59.070312 58.703125 59.027344 58.644531 58.9375 L 58.3125 58.625 L 59.925781 57.050781 C 60.027344 56.960938 60.121094 56.828125 60.203125 56.734375 L 60.566406 57.09375 C 60.632812 57.140625 60.6875 57.230469 60.742188 57.273438 C 60.792969 57.367188 60.835938 57.453125 60.867188 57.5 C 60.90625 57.589844 60.929688 57.679688 60.945312 57.769531 C 60.960938 57.859375 60.972656 57.949219 60.96875 58.039062 C 60.96875 58.128906 60.957031 58.21875 60.9375 58.308594 C 60.917969 58.398438 60.886719 58.488281 60.847656 58.53125 C 60.8125 58.625 60.765625 58.710938 60.710938 58.757812 C 60.660156 58.847656 60.597656 58.890625 60.53125 58.984375 Z M 68.765625 50.761719 C 68.710938 50.804688 68.644531 50.851562 68.570312 50.941406 C 68.5 50.984375 68.421875 51.03125 68.339844 51.078125 C 68.261719 51.078125 68.175781 51.121094 68.089844 51.121094 C 68.003906 51.164062 67.914062 51.164062 67.824219 51.164062 C 67.734375 51.164062 67.648438 51.164062 67.5625 51.121094 C 67.476562 51.121094 67.390625 51.078125 67.3125 51.078125 C 67.226562 51.03125 67.152344 50.984375 67.082031 50.941406 C 67.007812 50.851562 66.941406 50.804688 66.882812 50.761719 L 64.804688 48.648438 C 64.746094 48.605469 64.679688 48.5625 64.605469 48.515625 C 64.53125 48.515625 64.457031 48.46875 64.375 48.46875 C 64.296875 48.46875 64.21875 48.515625 64.140625 48.515625 C 64.070312 48.5625 64.003906 48.605469 63.945312 48.648438 C 63.890625 48.742188 63.847656 48.785156 63.8125 48.875 C 63.78125 48.921875 63.769531 49.007812 63.769531 49.101562 C 63.769531 49.1875 63.78125 49.234375 63.8125 49.324219 C 63.84375 49.414062 63.886719 49.460938 63.945312 49.503906 L 66.023438 51.617188 C 66.09375 51.660156 66.164062 51.703125 66.222656 51.796875 C 66.285156 51.882812 66.335938 51.929688 66.382812 52.019531 C 66.425781 52.109375 66.460938 52.199219 66.488281 52.289062 C 66.515625 52.378906 66.53125 52.46875 66.535156 52.558594 C 66.542969 52.648438 66.539062 52.738281 66.527344 52.828125 C 66.511719 52.917969 66.492188 53.054688 66.457031 53.097656 C 66.425781 53.1875 66.382812 53.277344 66.332031 53.367188 C 66.28125 53.457031 66.222656 53.5 66.15625 53.59375 C 66.09375 53.636719 66.019531 53.726562 65.9375 53.773438 C 65.863281 53.816406 65.777344 53.859375 65.691406 53.90625 C 65.605469 53.953125 65.515625 53.953125 65.421875 53.953125 C 65.328125 53.996094 65.234375 53.996094 65.140625 53.996094 C 65.046875 53.996094 64.953125 53.953125 64.863281 53.953125 C 64.769531 53.90625 64.683594 53.90625 64.601562 53.859375 C 64.515625 53.816406 64.4375 53.773438 64.363281 53.679688 C 64.292969 53.636719 64.226562 53.546875 64.167969 53.5 L 62.082031 51.390625 C 62.023438 51.34375 61.960938 51.300781 61.882812 51.257812 C 61.8125 51.257812 61.734375 51.210938 61.652344 51.210938 C 61.574219 51.210938 61.5 51.257812 61.421875 51.257812 C 61.351562 51.300781 61.285156 51.34375 61.226562 51.390625 C 61.109375 51.523438 61.050781 51.660156 61.050781 51.839844 C 61.050781 52.019531 61.109375 52.15625 61.226562 52.289062 L 63.3125 54.355469 C 63.371094 54.398438 63.421875 54.492188 63.472656 54.535156 C 63.515625 54.625 63.554688 54.714844 63.585938 54.757812 C 63.617188 54.851562 63.640625 54.9375 63.65625 55.03125 C 63.667969 55.117188 63.679688 55.210938 63.675781 55.296875 C 63.675781 55.390625 63.667969 55.433594 63.648438 55.523438 C 63.628906 55.613281 63.601562 55.703125 63.570312 55.792969 C 63.539062 55.882812 63.496094 55.929688 63.449219 56.015625 C 63.398438 56.0625 63.347656 56.152344 63.285156 56.195312 C 63.226562 56.289062 63.160156 56.332031 63.089844 56.375 C 63.015625 56.421875 62.941406 56.46875 62.859375 56.511719 C 62.78125 56.511719 62.703125 56.554688 62.617188 56.554688 C 62.535156 56.601562 62.449219 56.601562 62.363281 56.601562 C 62.277344 56.601562 62.191406 56.601562 62.105469 56.554688 C 62.023438 56.554688 61.9375 56.554688 61.859375 56.511719 C 61.78125 56.46875 61.703125 56.421875 61.628906 56.375 C 61.558594 56.332031 61.488281 56.289062 61.429688 56.242188 L 60.6875 55.476562 C 60.726562 55.117188 60.679688 54.757812 60.546875 54.398438 C 60.410156 54.039062 60.203125 53.726562 59.925781 53.457031 C 59.699219 53.234375 59.433594 53.007812 59.128906 52.875 C 58.824219 52.738281 58.507812 52.695312 58.171875 52.695312 L 57.957031 52.695312 C 57.980469 52.289062 57.929688 51.929688 57.789062 51.617188 C 57.65625 51.257812 57.453125 50.941406 57.179688 50.71875 C 56.953125 50.445312 56.691406 50.265625 56.386719 50.132812 C 56.082031 50 55.765625 49.90625 55.433594 49.90625 L 55.214844 49.90625 C 55.238281 49.546875 55.179688 49.1875 55.039062 48.828125 C 54.902344 48.515625 54.691406 48.203125 54.414062 47.976562 C 54.1875 47.707031 53.917969 47.527344 53.613281 47.390625 C 53.308594 47.257812 52.984375 47.210938 52.652344 47.210938 C 52.578125 47.167969 52.5 47.167969 52.425781 47.210938 C 52.457031 46.808594 52.402344 46.449219 52.269531 46.132812 C 52.132812 45.773438 51.929688 45.460938 51.65625 45.234375 C 51.433594 44.96875 51.164062 44.789062 50.863281 44.652344 C 50.558594 44.515625 50.238281 44.429688 49.90625 44.429688 C 49.558594 44.472656 49.226562 44.515625 48.90625 44.652344 C 48.589844 44.789062 48.304688 44.96875 48.054688 45.234375 L 45.980469 47.347656 C 45.402344 46.449219 44.953125 45.507812 44.644531 44.472656 C 44.335938 43.4375 44.171875 42.359375 44.164062 41.28125 C 44.164062 41.058594 44.632812 34.90625 51.203125 34.273438 C 54.234375 34.09375 55.789062 34.90625 56.601562 35.488281 L 52.503906 39.441406 C 52.382812 39.578125 52.269531 39.710938 52.175781 39.84375 C 52.078125 39.980469 51.996094 40.117188 51.929688 40.296875 C 51.863281 40.429688 51.8125 40.609375 51.78125 40.742188 C 51.742188 40.921875 51.726562 41.101562 51.726562 41.28125 C 51.726562 41.417969 51.742188 41.597656 51.78125 41.777344 C 51.8125 41.914062 51.863281 42.09375 51.929688 42.226562 C 51.996094 42.40625 52.078125 42.539062 52.175781 42.675781 C 52.269531 42.8125 52.382812 42.945312 52.503906 43.078125 C 52.621094 43.171875 52.746094 43.304688 52.886719 43.394531 C 53.023438 43.484375 53.167969 43.574219 53.324219 43.617188 C 53.480469 43.710938 53.640625 43.753906 53.804688 43.796875 C 53.96875 43.84375 54.136719 43.84375 54.304688 43.84375 C 54.476562 43.84375 54.640625 43.84375 54.804688 43.796875 C 54.972656 43.753906 55.132812 43.710938 55.285156 43.617188 C 55.441406 43.574219 55.585938 43.484375 55.722656 43.394531 C 55.863281 43.304688 55.992188 43.171875 56.105469 43.078125 L 60.074219 39.082031 L 68.765625 48.921875 C 68.828125 48.964844 68.882812 49.054688 68.933594 49.101562 C 68.980469 49.1875 69.019531 49.234375 69.054688 49.324219 C 69.089844 49.414062 69.113281 49.503906 69.132812 49.59375 C 69.148438 49.683594 69.15625 49.726562 69.15625 49.820312 C 69.15625 49.90625 69.148438 50 69.132812 50.085938 C 69.113281 50.179688 69.089844 50.265625 69.054688 50.3125 C 69.019531 50.402344 68.980469 50.492188 68.933594 50.539062 C 68.882812 50.625 68.828125 50.671875 68.765625 50.761719 Z M 68.765625 50.761719 "/>
</g>
<path style=" stroke:none;fill-rule:nonzero;fill:rgb(6.27451%,6.666667%,37.64706%);fill-opacity:1;" d="M 42.101562 67.695312 C 42.28125 67.695312 42.425781 67.742188 42.527344 67.832031 C 42.632812 67.96875 42.6875 68.101562 42.6875 68.28125 L 42.6875 73.71875 C 42.6875 73.898438 42.632812 74.03125 42.523438 74.164062 C 42.414062 74.257812 42.273438 74.300781 42.101562 74.300781 C 41.921875 74.300781 41.78125 74.257812 41.675781 74.164062 C 41.566406 74.03125 41.515625 73.898438 41.515625 73.71875 L 41.515625 71.425781 L 38.171875 71.425781 L 38.171875 73.71875 C 38.171875 73.898438 38.117188 74.03125 38.011719 74.164062 C 37.902344 74.257812 37.761719 74.300781 37.585938 74.300781 C 37.410156 74.300781 37.265625 74.257812 37.160156 74.164062 C 37.050781 74.03125 36.996094 73.898438 36.996094 73.71875 L 36.996094 68.28125 C 36.996094 68.101562 37.050781 67.96875 37.15625 67.832031 C 37.261719 67.742188 37.40625 67.695312 37.585938 67.695312 C 37.761719 67.695312 37.902344 67.742188 38.011719 67.832031 C 38.117188 67.96875 38.171875 68.101562 38.171875 68.28125 L 38.171875 70.4375 L 41.515625 70.4375 L 41.515625 68.28125 C 41.515625 68.101562 41.566406 67.96875 41.675781 67.832031 C 41.78125 67.742188 41.921875 67.695312 42.101562 67.695312 Z M 42.101562 67.695312 "/>
<path style=" stroke:none;fill-rule:nonzero;fill:rgb(6.27451%,6.666667%,37.64706%);fill-opacity:1;" d="M 45.496094 74.257812 C 45.316406 74.257812 45.179688 74.210938 45.078125 74.121094 C 44.976562 74.03125 44.921875 73.851562 44.921875 73.671875 L 44.921875 68.28125 C 44.921875 68.101562 44.976562 67.96875 45.078125 67.875 C 45.179688 67.789062 45.316406 67.742188 45.496094 67.742188 L 48.84375 67.742188 C 49.023438 67.742188 49.160156 67.789062 49.253906 67.832031 C 49.355469 67.921875 49.402344 68.054688 49.402344 68.191406 C 49.402344 68.328125 49.355469 68.460938 49.253906 68.550781 C 49.160156 68.640625 49.023438 68.6875 48.84375 68.6875 L 46.089844 68.6875 L 46.089844 70.484375 L 48.65625 70.484375 C 48.832031 70.484375 48.972656 70.527344 49.074219 70.570312 C 49.171875 70.664062 49.222656 70.796875 49.222656 70.929688 C 49.222656 71.109375 49.171875 71.203125 49.074219 71.289062 C 48.972656 71.382812 48.832031 71.425781 48.65625 71.425781 L 46.089844 71.425781 L 46.089844 73.3125 L 48.84375 73.3125 C 49.023438 73.3125 49.160156 73.359375 49.253906 73.445312 C 49.355469 73.539062 49.402344 73.625 49.402344 73.804688 C 49.402344 73.941406 49.355469 74.078125 49.253906 74.121094 C 49.160156 74.210938 49.023438 74.257812 48.84375 74.257812 Z M 45.496094 74.257812 "/>
<path style=" stroke:none;fill-rule:nonzero;fill:rgb(6.27451%,6.666667%,37.64706%);fill-opacity:1;" d="M 51.773438 74.257812 C 51.59375 74.257812 51.457031 74.210938 51.359375 74.121094 C 51.257812 74.03125 51.210938 73.851562 51.210938 73.71875 L 51.210938 68.28125 C 51.210938 68.101562 51.265625 67.96875 51.371094 67.832031 C 51.480469 67.742188 51.625 67.695312 51.804688 67.695312 C 51.988281 67.695312 52.132812 67.742188 52.242188 67.832031 C 52.347656 67.96875 52.402344 68.101562 52.402344 68.28125 L 52.402344 73.265625 L 55.003906 73.265625 C 55.375 73.265625 55.558594 73.445312 55.558594 73.761719 C 55.558594 74.078125 55.375 74.257812 55.003906 74.257812 Z M 51.773438 74.257812 "/>
<path style=" stroke:none;fill-rule:nonzero;fill:rgb(6.27451%,6.666667%,37.64706%);fill-opacity:1;" d="M 57.777344 74.300781 C 57.597656 74.300781 57.453125 74.257812 57.34375 74.164062 C 57.238281 74.03125 57.183594 73.898438 57.183594 73.71875 L 57.183594 68.28125 C 57.183594 68.101562 57.230469 67.96875 57.335938 67.875 C 57.4375 67.789062 57.578125 67.742188 57.757812 67.742188 L 60.035156 67.742188 C 60.734375 67.742188 61.273438 67.921875 61.664062 68.234375 C 62.050781 68.59375 62.246094 69.089844 62.246094 69.71875 C 62.246094 70.347656 62.050781 70.84375 61.664062 71.203125 C 61.273438 71.5625 60.734375 71.695312 60.035156 71.695312 L 58.375 71.695312 L 58.375 73.71875 C 58.375 73.898438 58.320312 74.03125 58.210938 74.164062 C 58.105469 74.257812 57.960938 74.300781 57.777344 74.300781 Z M 59.882812 70.796875 C 60.703125 70.796875 61.117188 70.4375 61.117188 69.71875 C 61.117188 69 60.703125 68.640625 59.882812 68.640625 L 58.375 68.640625 L 58.375 70.796875 Z M 59.882812 70.796875 "/>
<path style=" stroke:none;fill-rule:nonzero;fill:rgb(6.27451%,6.666667%,37.64706%);fill-opacity:1;" d="M 64.71875 74.300781 C 64.539062 74.300781 64.398438 74.257812 64.289062 74.164062 C 64.179688 74.03125 64.125 73.898438 64.125 73.71875 L 64.125 68.28125 C 64.125 68.101562 64.179688 67.96875 64.289062 67.832031 C 64.398438 67.742188 64.539062 67.695312 64.71875 67.695312 C 64.902344 67.695312 65.050781 67.742188 65.15625 67.832031 C 65.261719 67.96875 65.320312 68.101562 65.320312 68.28125 L 65.320312 73.71875 C 65.320312 73.898438 65.261719 74.03125 65.15625 74.164062 C 65.050781 74.257812 64.902344 74.300781 64.71875 74.300781 Z M 64.71875 74.300781 "/>
<path style=" stroke:none;fill-rule:nonzero;fill:rgb(6.27451%,6.666667%,37.64706%);fill-opacity:1;" d="M 68.15625 74.300781 C 67.976562 74.300781 67.832031 74.257812 67.722656 74.164062 C 67.617188 74.03125 67.5625 73.898438 67.5625 73.71875 L 67.5625 68.28125 C 67.5625 68.101562 67.609375 67.96875 67.710938 67.875 C 67.8125 67.789062 67.957031 67.742188 68.136719 67.742188 L 71.382812 67.742188 C 71.761719 67.742188 71.949219 67.875 71.949219 68.191406 C 71.949219 68.507812 71.761719 68.6875 71.382812 68.6875 L 68.738281 68.6875 L 68.738281 70.4375 L 71.203125 70.4375 C 71.574219 70.4375 71.761719 70.617188 71.761719 70.929688 C 71.761719 71.246094 71.574219 71.425781 71.203125 71.425781 L 68.738281 71.425781 L 68.738281 73.71875 C 68.738281 73.898438 68.683594 74.03125 68.574219 74.164062 C 68.472656 74.257812 68.335938 74.300781 68.15625 74.300781 Z M 68.15625 74.300781 "/>
<path style=" stroke:none;fill-rule:nonzero;fill:rgb(6.27451%,6.666667%,37.64706%);fill-opacity:1;" d="M 77.707031 67.875 C 77.816406 67.742188 77.953125 67.695312 78.109375 67.695312 C 78.246094 67.695312 78.375 67.742188 78.488281 67.832031 C 78.601562 67.96875 78.65625 68.101562 78.65625 68.234375 C 78.65625 68.371094 78.605469 68.460938 78.515625 68.59375 L 76.414062 71.15625 L 76.414062 73.71875 C 76.414062 73.898438 76.355469 74.03125 76.246094 74.164062 C 76.132812 74.257812 75.988281 74.300781 75.820312 74.300781 C 75.640625 74.300781 75.492188 74.257812 75.386719 74.164062 C 75.269531 74.03125 75.21875 73.898438 75.21875 73.71875 L 75.21875 71.15625 L 73.113281 68.59375 C 73.023438 68.460938 72.976562 68.371094 72.976562 68.234375 C 72.976562 68.101562 73.03125 67.96875 73.140625 67.832031 C 73.253906 67.742188 73.378906 67.695312 73.523438 67.695312 C 73.679688 67.695312 73.808594 67.742188 73.921875 67.875 L 75.820312 70.257812 Z M 77.707031 67.875 "/>
<path style=" stroke:none;fill-rule:nonzero;fill:rgb(6.27451%,6.666667%,37.64706%);fill-opacity:1;" d="M 32.605469 79.601562 C 32.660156 79.601562 32.703125 79.648438 32.734375 79.648438 C 32.765625 79.691406 32.78125 79.734375 32.78125 79.78125 L 32.78125 81.488281 C 32.78125 81.53125 32.761719 81.578125 32.730469 81.625 C 32.695312 81.667969 32.65625 81.667969 32.605469 81.667969 C 32.542969 81.667969 32.492188 81.667969 32.464844 81.625 L 31.402344 80.230469 L 31.402344 81.488281 C 31.402344 81.53125 31.386719 81.578125 31.355469 81.625 C 31.324219 81.667969 31.277344 81.667969 31.222656 81.667969 C 31.167969 81.667969 31.128906 81.667969 31.097656 81.625 C 31.066406 81.578125 31.054688 81.53125 31.054688 81.488281 L 31.054688 79.78125 C 31.054688 79.734375 31.066406 79.691406 31.101562 79.648438 C 31.132812 79.648438 31.183594 79.601562 31.234375 79.601562 C 31.292969 79.601562 31.335938 79.648438 31.375 79.691406 L 32.425781 81.039062 L 32.425781 79.78125 C 32.425781 79.734375 32.445312 79.691406 32.476562 79.648438 C 32.503906 79.648438 32.550781 79.601562 32.605469 79.601562 Z M 32.605469 79.601562 "/>
<path style=" stroke:none;fill-rule:nonzero;fill:rgb(6.27451%,6.666667%,37.64706%);fill-opacity:1;" d="M 34.667969 81.710938 C 34.46875 81.710938 34.296875 81.667969 34.148438 81.578125 C 34.003906 81.488281 33.890625 81.351562 33.8125 81.21875 C 33.734375 81.039062 33.695312 80.859375 33.695312 80.632812 C 33.695312 80.410156 33.734375 80.230469 33.8125 80.09375 C 33.890625 79.914062 34.003906 79.828125 34.148438 79.734375 C 34.296875 79.648438 34.46875 79.601562 34.667969 79.601562 C 34.867188 79.601562 35.039062 79.648438 35.183594 79.734375 C 35.332031 79.828125 35.445312 79.914062 35.519531 80.09375 C 35.597656 80.230469 35.636719 80.410156 35.636719 80.632812 C 35.636719 80.859375 35.597656 81.039062 35.519531 81.21875 C 35.445312 81.351562 35.332031 81.488281 35.183594 81.578125 C 35.039062 81.667969 34.867188 81.710938 34.667969 81.710938 Z M 34.667969 81.398438 C 34.851562 81.398438 35.003906 81.351562 35.109375 81.21875 C 35.210938 81.085938 35.265625 80.90625 35.265625 80.632812 C 35.265625 80.410156 35.210938 80.230469 35.109375 80.09375 C 35.003906 79.960938 34.851562 79.914062 34.667969 79.914062 C 34.476562 79.914062 34.332031 79.960938 34.222656 80.09375 C 34.121094 80.230469 34.070312 80.410156 34.070312 80.632812 C 34.070312 80.90625 34.121094 81.085938 34.222656 81.21875 C 34.332031 81.351562 34.476562 81.398438 34.667969 81.398438 Z M 34.667969 81.398438 "/>
<path style=" stroke:none;fill-rule:nonzero;fill:rgb(6.27451%,6.666667%,37.64706%);fill-opacity:1;" d="M 38.105469 79.601562 C 38.160156 79.601562 38.203125 79.648438 38.234375 79.648438 C 38.265625 79.691406 38.28125 79.734375 38.28125 79.78125 L 38.28125 81.488281 C 38.28125 81.53125 38.265625 81.578125 38.230469 81.625 C 38.199219 81.667969 38.15625 81.667969 38.105469 81.667969 C 38.039062 81.667969 37.992188 81.667969 37.960938 81.625 L 36.902344 80.230469 L 36.902344 81.488281 C 36.902344 81.53125 36.886719 81.578125 36.855469 81.625 C 36.824219 81.667969 36.777344 81.667969 36.726562 81.667969 C 36.671875 81.667969 36.625 81.667969 36.597656 81.625 C 36.566406 81.578125 36.554688 81.53125 36.554688 81.488281 L 36.554688 79.78125 C 36.554688 79.734375 36.570312 79.691406 36.601562 79.648438 C 36.636719 79.648438 36.679688 79.601562 36.734375 79.601562 C 36.792969 79.601562 36.839844 79.648438 36.875 79.691406 L 37.929688 81.039062 L 37.929688 79.78125 C 37.929688 79.734375 37.945312 79.691406 37.976562 79.648438 C 38.007812 79.648438 38.050781 79.601562 38.105469 79.601562 Z M 38.105469 79.601562 "/>
<path style=" stroke:none;fill-rule:nonzero;fill:rgb(6.27451%,6.666667%,37.64706%);fill-opacity:1;" d="M 39.367188 81.039062 C 39.3125 81.039062 39.269531 81.039062 39.242188 80.992188 C 39.214844 80.992188 39.199219 80.949219 39.199219 80.90625 C 39.199219 80.859375 39.214844 80.8125 39.242188 80.769531 C 39.269531 80.769531 39.3125 80.769531 39.367188 80.769531 L 39.964844 80.769531 C 40.019531 80.769531 40.0625 80.769531 40.089844 80.769531 C 40.117188 80.8125 40.132812 80.859375 40.132812 80.90625 C 40.132812 80.949219 40.117188 80.992188 40.089844 80.992188 C 40.0625 81.039062 40.019531 81.039062 39.964844 81.039062 Z M 39.367188 81.039062 "/>
<path style=" stroke:none;fill-rule:nonzero;fill:rgb(6.27451%,6.666667%,37.64706%);fill-opacity:1;" d="M 41.238281 81.667969 C 41.183594 81.667969 41.136719 81.667969 41.101562 81.625 C 41.070312 81.578125 41.050781 81.53125 41.050781 81.488281 L 41.050781 79.78125 C 41.050781 79.734375 41.070312 79.691406 41.101562 79.691406 C 41.128906 79.648438 41.179688 79.601562 41.234375 79.601562 L 41.949219 79.601562 C 42.167969 79.601562 42.335938 79.691406 42.457031 79.78125 C 42.578125 79.914062 42.644531 80.050781 42.644531 80.230469 C 42.644531 80.453125 42.578125 80.589844 42.457031 80.726562 C 42.335938 80.8125 42.167969 80.859375 41.949219 80.859375 L 41.425781 80.859375 L 41.425781 81.488281 C 41.425781 81.53125 41.410156 81.578125 41.375 81.625 C 41.339844 81.667969 41.296875 81.667969 41.238281 81.667969 Z M 41.902344 80.589844 C 42.160156 80.589844 42.289062 80.453125 42.289062 80.230469 C 42.289062 80.007812 42.160156 79.914062 41.902344 79.914062 L 41.425781 79.914062 L 41.425781 80.589844 Z M 41.902344 80.589844 "/>
<path style=" stroke:none;fill-rule:nonzero;fill:rgb(6.27451%,6.666667%,37.64706%);fill-opacity:1;" d="M 45.144531 81.445312 C 45.164062 81.488281 45.175781 81.488281 45.175781 81.53125 C 45.175781 81.578125 45.160156 81.625 45.125 81.625 C 45.089844 81.667969 45.046875 81.667969 45 81.667969 C 44.96875 81.667969 44.9375 81.667969 44.910156 81.667969 C 44.878906 81.667969 44.855469 81.625 44.839844 81.625 L 44.453125 81.039062 C 44.414062 80.949219 44.367188 80.90625 44.324219 80.90625 C 44.28125 80.859375 44.226562 80.859375 44.15625 80.859375 L 43.875 80.859375 L 43.875 81.488281 C 43.875 81.53125 43.855469 81.578125 43.820312 81.625 C 43.789062 81.667969 43.746094 81.667969 43.691406 81.667969 C 43.632812 81.667969 43.585938 81.667969 43.550781 81.625 C 43.519531 81.578125 43.503906 81.53125 43.503906 81.488281 L 43.503906 79.78125 C 43.503906 79.734375 43.519531 79.691406 43.550781 79.691406 C 43.582031 79.648438 43.628906 79.601562 43.6875 79.601562 L 44.410156 79.601562 C 44.640625 79.601562 44.820312 79.691406 44.941406 79.78125 C 45.0625 79.871094 45.125 80.050781 45.125 80.230469 C 45.125 80.367188 45.078125 80.5 44.984375 80.632812 C 44.894531 80.726562 44.769531 80.769531 44.605469 80.8125 C 44.660156 80.8125 44.707031 80.859375 44.75 80.90625 C 44.796875 80.90625 44.839844 80.949219 44.878906 81.039062 Z M 44.359375 80.546875 C 44.496094 80.546875 44.601562 80.546875 44.671875 80.5 C 44.734375 80.410156 44.769531 80.367188 44.769531 80.230469 C 44.769531 80.140625 44.734375 80.050781 44.671875 80.007812 C 44.601562 79.914062 44.496094 79.914062 44.359375 79.914062 L 43.867188 79.914062 L 43.867188 80.546875 Z M 44.359375 80.546875 "/>
<path style=" stroke:none;fill-rule:nonzero;fill:rgb(6.27451%,6.666667%,37.64706%);fill-opacity:1;" d="M 46.96875 81.710938 C 46.769531 81.710938 46.597656 81.667969 46.449219 81.578125 C 46.300781 81.488281 46.1875 81.351562 46.109375 81.21875 C 46.03125 81.039062 45.992188 80.859375 45.992188 80.632812 C 45.992188 80.410156 46.03125 80.230469 46.109375 80.09375 C 46.1875 79.914062 46.300781 79.828125 46.449219 79.734375 C 46.597656 79.648438 46.769531 79.601562 46.96875 79.601562 C 47.167969 79.601562 47.339844 79.648438 47.484375 79.734375 C 47.632812 79.828125 47.742188 79.914062 47.820312 80.09375 C 47.898438 80.230469 47.941406 80.410156 47.941406 80.632812 C 47.941406 80.859375 47.898438 81.039062 47.820312 81.21875 C 47.742188 81.351562 47.632812 81.488281 47.484375 81.578125 C 47.339844 81.667969 47.164062 81.710938 46.96875 81.710938 Z M 46.96875 81.398438 C 47.15625 81.398438 47.304688 81.351562 47.40625 81.21875 C 47.515625 81.085938 47.566406 80.90625 47.566406 80.632812 C 47.566406 80.410156 47.515625 80.230469 47.40625 80.09375 C 47.304688 79.960938 47.15625 79.914062 46.96875 79.914062 C 46.777344 79.914062 46.632812 79.960938 46.527344 80.09375 C 46.421875 80.230469 46.367188 80.410156 46.367188 80.632812 C 46.367188 80.90625 46.421875 81.085938 46.527344 81.21875 C 46.632812 81.351562 46.777344 81.398438 46.96875 81.398438 Z M 46.96875 81.398438 "/>
<path style=" stroke:none;fill-rule:nonzero;fill:rgb(6.27451%,6.666667%,37.64706%);fill-opacity:1;" d="M 49.042969 81.667969 C 48.984375 81.667969 48.933594 81.667969 48.902344 81.625 C 48.867188 81.578125 48.855469 81.53125 48.855469 81.488281 L 48.855469 79.78125 C 48.855469 79.734375 48.867188 79.691406 48.902344 79.691406 C 48.933594 79.648438 48.976562 79.601562 49.035156 79.601562 L 50.050781 79.601562 C 50.167969 79.601562 50.230469 79.691406 50.230469 79.78125 C 50.230469 79.871094 50.167969 79.914062 50.050781 79.914062 L 49.222656 79.914062 L 49.222656 80.5 L 49.996094 80.5 C 50.113281 80.5 50.171875 80.546875 50.171875 80.632812 C 50.171875 80.726562 50.113281 80.769531 49.996094 80.769531 L 49.222656 80.769531 L 49.222656 81.488281 C 49.222656 81.53125 49.203125 81.578125 49.167969 81.625 C 49.136719 81.667969 49.097656 81.667969 49.042969 81.667969 Z M 49.042969 81.667969 "/>
<path style=" stroke:none;fill-rule:nonzero;fill:rgb(6.27451%,6.666667%,37.64706%);fill-opacity:1;" d="M 51.21875 81.667969 C 51.164062 81.667969 51.113281 81.667969 51.078125 81.625 C 51.050781 81.578125 51.03125 81.53125 51.03125 81.488281 L 51.03125 79.78125 C 51.03125 79.734375 51.050781 79.691406 51.078125 79.648438 C 51.113281 79.648438 51.164062 79.601562 51.21875 79.601562 C 51.277344 79.601562 51.320312 79.648438 51.355469 79.648438 C 51.390625 79.691406 51.410156 79.734375 51.410156 79.78125 L 51.410156 81.488281 C 51.410156 81.53125 51.390625 81.578125 51.355469 81.625 C 51.320312 81.667969 51.277344 81.667969 51.21875 81.667969 Z M 51.21875 81.667969 "/>
<path style=" stroke:none;fill-rule:nonzero;fill:rgb(6.27451%,6.666667%,37.64706%);fill-opacity:1;" d="M 53.054688 81.667969 C 53 81.667969 52.953125 81.667969 52.917969 81.625 C 52.886719 81.578125 52.871094 81.53125 52.871094 81.488281 L 52.871094 79.914062 L 52.335938 79.914062 C 52.222656 79.914062 52.164062 79.871094 52.164062 79.78125 C 52.164062 79.691406 52.222656 79.601562 52.335938 79.601562 L 53.769531 79.601562 C 53.886719 79.601562 53.941406 79.691406 53.941406 79.78125 C 53.941406 79.871094 53.886719 79.914062 53.769531 79.914062 L 53.242188 79.914062 L 53.242188 81.488281 C 53.242188 81.53125 53.222656 81.578125 53.191406 81.625 C 53.15625 81.667969 53.117188 81.667969 53.054688 81.667969 Z M 53.054688 81.667969 "/>
<path style=" stroke:none;fill-rule:nonzero;fill:rgb(6.27451%,6.666667%,37.64706%);fill-opacity:1;" d="M 56.933594 81.710938 C 56.734375 81.710938 56.5625 81.667969 56.414062 81.578125 C 56.269531 81.488281 56.15625 81.351562 56.074219 81.21875 C 56 81.039062 55.960938 80.859375 55.960938 80.632812 C 55.960938 80.410156 56 80.230469 56.074219 80.09375 C 56.15625 79.914062 56.269531 79.828125 56.414062 79.734375 C 56.5625 79.648438 56.734375 79.601562 56.933594 79.601562 C 57.132812 79.601562 57.308594 79.648438 57.453125 79.734375 C 57.597656 79.828125 57.710938 79.914062 57.789062 80.09375 C 57.867188 80.230469 57.90625 80.410156 57.90625 80.632812 C 57.90625 80.859375 57.867188 81.039062 57.789062 81.21875 C 57.710938 81.351562 57.597656 81.488281 57.453125 81.578125 C 57.300781 81.667969 57.132812 81.710938 56.933594 81.710938 Z M 56.933594 81.398438 C 57.121094 81.398438 57.269531 81.351562 57.375 81.21875 C 57.480469 81.085938 57.53125 80.90625 57.53125 80.632812 C 57.53125 80.410156 57.480469 80.230469 57.375 80.09375 C 57.269531 79.960938 57.121094 79.914062 56.933594 79.914062 C 56.746094 79.914062 56.597656 79.960938 56.492188 80.09375 C 56.386719 80.230469 56.335938 80.410156 56.335938 80.632812 C 56.335938 80.90625 56.386719 81.085938 56.492188 81.21875 C 56.597656 81.351562 56.746094 81.398438 56.933594 81.398438 Z M 56.933594 81.398438 "/>
<path style=" stroke:none;fill-rule:nonzero;fill:rgb(6.27451%,6.666667%,37.64706%);fill-opacity:1;" d="M 60.457031 81.445312 C 60.484375 81.488281 60.496094 81.488281 60.496094 81.53125 C 60.496094 81.578125 60.476562 81.625 60.441406 81.625 C 60.40625 81.667969 60.363281 81.667969 60.316406 81.667969 C 60.285156 81.667969 60.253906 81.667969 60.226562 81.667969 C 60.195312 81.667969 60.171875 81.625 60.152344 81.625 L 59.769531 81.039062 C 59.726562 80.949219 59.6875 80.90625 59.636719 80.90625 C 59.597656 80.859375 59.542969 80.859375 59.46875 80.859375 L 59.1875 80.859375 L 59.1875 81.488281 C 59.1875 81.53125 59.171875 81.578125 59.136719 81.625 C 59.105469 81.667969 59.0625 81.667969 59.007812 81.667969 C 58.949219 81.667969 58.902344 81.667969 58.867188 81.625 C 58.835938 81.578125 58.820312 81.53125 58.820312 81.488281 L 58.820312 79.78125 C 58.820312 79.734375 58.835938 79.691406 58.867188 79.691406 C 58.902344 79.648438 58.945312 79.601562 59.003906 79.601562 L 59.726562 79.601562 C 59.957031 79.601562 60.136719 79.691406 60.257812 79.78125 C 60.382812 79.871094 60.441406 80.050781 60.441406 80.230469 C 60.441406 80.367188 60.394531 80.5 60.304688 80.632812 C 60.214844 80.726562 60.085938 80.769531 59.921875 80.8125 C 59.976562 80.8125 60.023438 80.859375 60.066406 80.90625 C 60.113281 80.90625 60.152344 80.949219 60.195312 81.039062 Z M 59.675781 80.546875 C 59.8125 80.546875 59.917969 80.546875 59.984375 80.5 C 60.050781 80.410156 60.085938 80.367188 60.085938 80.230469 C 60.085938 80.140625 60.050781 80.050781 59.984375 80.007812 C 59.917969 79.914062 59.8125 79.914062 59.675781 79.914062 L 59.183594 79.914062 L 59.183594 80.546875 Z M 59.675781 80.546875 "/>
<path style=" stroke:none;fill-rule:nonzero;fill:rgb(6.27451%,6.666667%,37.64706%);fill-opacity:1;" d="M 62.933594 80.546875 C 62.972656 80.546875 63.011719 80.589844 63.035156 80.589844 C 63.0625 80.632812 63.078125 80.679688 63.078125 80.726562 L 63.078125 81.308594 C 63.078125 81.398438 63.066406 81.488281 63.046875 81.53125 C 63.023438 81.578125 62.972656 81.578125 62.902344 81.625 C 62.824219 81.625 62.734375 81.667969 62.632812 81.667969 C 62.53125 81.667969 62.433594 81.710938 62.335938 81.710938 C 62.125 81.710938 61.941406 81.667969 61.785156 81.578125 C 61.632812 81.488281 61.511719 81.351562 61.429688 81.21875 C 61.351562 81.039062 61.308594 80.859375 61.308594 80.632812 C 61.308594 80.410156 61.351562 80.230469 61.429688 80.09375 C 61.511719 79.914062 61.628906 79.828125 61.78125 79.734375 C 61.933594 79.648438 62.113281 79.601562 62.316406 79.601562 C 62.589844 79.601562 62.8125 79.648438 62.988281 79.828125 C 63.011719 79.828125 63.027344 79.871094 63.035156 79.871094 C 63.046875 79.914062 63.054688 79.914062 63.054688 79.960938 C 63.054688 80.007812 63.039062 80.050781 63.015625 80.050781 C 62.992188 80.09375 62.96875 80.09375 62.9375 80.09375 C 62.914062 80.09375 62.894531 80.09375 62.878906 80.09375 C 62.859375 80.09375 62.84375 80.09375 62.816406 80.050781 C 62.730469 80.007812 62.652344 79.960938 62.578125 79.960938 C 62.507812 79.914062 62.421875 79.914062 62.328125 79.914062 C 62.117188 79.914062 61.957031 79.960938 61.847656 80.09375 C 61.742188 80.230469 61.691406 80.410156 61.691406 80.632812 C 61.691406 81.128906 61.910156 81.398438 62.351562 81.398438 C 62.484375 81.398438 62.613281 81.398438 62.746094 81.351562 L 62.746094 80.8125 L 62.417969 80.8125 C 62.371094 80.8125 62.335938 80.8125 62.308594 80.8125 C 62.28125 80.769531 62.269531 80.726562 62.269531 80.679688 C 62.269531 80.632812 62.28125 80.632812 62.308594 80.589844 C 62.335938 80.589844 62.371094 80.546875 62.417969 80.546875 Z M 62.933594 80.546875 "/>
<path style=" stroke:none;fill-rule:nonzero;fill:rgb(6.27451%,6.666667%,37.64706%);fill-opacity:1;" d="M 65.890625 81.445312 C 65.902344 81.488281 65.910156 81.488281 65.910156 81.53125 C 65.910156 81.578125 65.890625 81.625 65.855469 81.625 C 65.820312 81.667969 65.78125 81.667969 65.734375 81.667969 C 65.699219 81.667969 65.667969 81.667969 65.640625 81.667969 C 65.617188 81.625 65.59375 81.625 65.578125 81.578125 L 65.40625 81.171875 L 64.386719 81.171875 L 64.207031 81.578125 C 64.195312 81.625 64.175781 81.625 64.148438 81.667969 C 64.117188 81.667969 64.089844 81.667969 64.054688 81.667969 C 64.011719 81.667969 63.96875 81.667969 63.933594 81.625 C 63.898438 81.625 63.878906 81.578125 63.878906 81.53125 C 63.878906 81.488281 63.886719 81.488281 63.898438 81.445312 L 64.699219 79.734375 C 64.71875 79.691406 64.742188 79.648438 64.777344 79.648438 C 64.8125 79.601562 64.851562 79.601562 64.894531 79.601562 C 64.933594 79.601562 64.976562 79.601562 65.011719 79.648438 C 65.042969 79.648438 65.070312 79.691406 65.085938 79.734375 Z M 64.511719 80.90625 L 65.277344 80.90625 L 64.894531 80.050781 Z M 64.511719 80.90625 "/>
<path style=" stroke:none;fill-rule:nonzero;fill:rgb(6.27451%,6.666667%,37.64706%);fill-opacity:1;" d="M 68.277344 79.601562 C 68.332031 79.601562 68.378906 79.648438 68.40625 79.648438 C 68.4375 79.691406 68.453125 79.734375 68.453125 79.78125 L 68.453125 81.488281 C 68.453125 81.53125 68.4375 81.578125 68.402344 81.625 C 68.371094 81.667969 68.328125 81.667969 68.277344 81.667969 C 68.214844 81.667969 68.167969 81.667969 68.132812 81.625 L 67.078125 80.230469 L 67.078125 81.488281 C 67.078125 81.53125 67.058594 81.578125 67.03125 81.625 C 66.992188 81.667969 66.953125 81.667969 66.898438 81.667969 C 66.84375 81.667969 66.800781 81.667969 66.769531 81.625 C 66.742188 81.578125 66.722656 81.53125 66.722656 81.488281 L 66.722656 79.78125 C 66.722656 79.734375 66.742188 79.691406 66.773438 79.648438 C 66.808594 79.648438 66.851562 79.601562 66.910156 79.601562 C 66.964844 79.601562 67.011719 79.648438 67.046875 79.691406 L 68.101562 81.039062 L 68.101562 79.78125 C 68.101562 79.734375 68.117188 79.691406 68.148438 79.648438 C 68.179688 79.648438 68.222656 79.601562 68.277344 79.601562 Z M 68.277344 79.601562 "/>
<path style=" stroke:none;fill-rule:nonzero;fill:rgb(6.27451%,6.666667%,37.64706%);fill-opacity:1;" d="M 69.617188 81.667969 C 69.558594 81.667969 69.511719 81.667969 69.480469 81.625 C 69.445312 81.578125 69.429688 81.53125 69.429688 81.488281 L 69.429688 79.78125 C 69.429688 79.734375 69.445312 79.691406 69.480469 79.648438 C 69.511719 79.648438 69.558594 79.601562 69.617188 79.601562 C 69.671875 79.601562 69.71875 79.648438 69.75 79.648438 C 69.785156 79.691406 69.800781 79.734375 69.800781 79.78125 L 69.800781 81.488281 C 69.800781 81.53125 69.785156 81.578125 69.75 81.625 C 69.71875 81.667969 69.671875 81.667969 69.617188 81.667969 Z M 69.617188 81.667969 "/>
<path style=" stroke:none;fill-rule:nonzero;fill:rgb(6.27451%,6.666667%,37.64706%);fill-opacity:1;" d="M 72.074219 81.351562 C 72.1875 81.351562 72.242188 81.398438 72.242188 81.53125 C 72.242188 81.625 72.1875 81.667969 72.074219 81.667969 L 70.828125 81.667969 C 70.78125 81.667969 70.742188 81.667969 70.710938 81.625 C 70.683594 81.578125 70.664062 81.578125 70.664062 81.488281 C 70.664062 81.445312 70.683594 81.398438 70.714844 81.398438 L 71.75 79.914062 L 70.84375 79.914062 C 70.726562 79.914062 70.664062 79.871094 70.664062 79.78125 C 70.664062 79.691406 70.726562 79.601562 70.84375 79.601562 L 72.042969 79.601562 C 72.089844 79.601562 72.132812 79.648438 72.164062 79.691406 C 72.191406 79.691406 72.210938 79.734375 72.210938 79.78125 C 72.210938 79.828125 72.191406 79.871094 72.15625 79.914062 L 71.117188 81.351562 Z M 72.074219 81.351562 "/>
<path style=" stroke:none;fill-rule:nonzero;fill:rgb(6.27451%,6.666667%,37.64706%);fill-opacity:1;" d="M 74.921875 81.445312 C 74.933594 81.488281 74.9375 81.488281 74.9375 81.53125 C 74.9375 81.578125 74.921875 81.625 74.886719 81.625 C 74.851562 81.667969 74.808594 81.667969 74.761719 81.667969 C 74.730469 81.667969 74.699219 81.667969 74.671875 81.667969 C 74.644531 81.625 74.625 81.625 74.609375 81.578125 L 74.4375 81.171875 L 73.414062 81.171875 L 73.238281 81.578125 C 73.226562 81.625 73.203125 81.625 73.175781 81.667969 C 73.152344 81.667969 73.121094 81.667969 73.085938 81.667969 C 73.039062 81.667969 73 81.667969 72.960938 81.625 C 72.921875 81.625 72.90625 81.578125 72.90625 81.53125 C 72.90625 81.488281 72.914062 81.488281 72.925781 81.445312 L 73.726562 79.734375 C 73.746094 79.691406 73.773438 79.648438 73.808594 79.648438 C 73.84375 79.601562 73.882812 79.601562 73.921875 79.601562 C 73.964844 79.601562 74 79.601562 74.039062 79.648438 C 74.074219 79.648438 74.097656 79.691406 74.113281 79.734375 Z M 73.539062 80.90625 L 74.308594 80.90625 L 73.921875 80.050781 Z M 73.539062 80.90625 "/>
<path style=" stroke:none;fill-rule:nonzero;fill:rgb(6.27451%,6.666667%,37.64706%);fill-opacity:1;" d="M 76.425781 81.667969 C 76.367188 81.667969 76.320312 81.667969 76.285156 81.625 C 76.253906 81.578125 76.238281 81.53125 76.238281 81.488281 L 76.238281 79.914062 L 75.707031 79.914062 C 75.589844 79.914062 75.535156 79.871094 75.535156 79.78125 C 75.535156 79.691406 75.589844 79.601562 75.707031 79.601562 L 77.140625 79.601562 C 77.253906 79.601562 77.3125 79.691406 77.3125 79.78125 C 77.3125 79.871094 77.253906 79.914062 77.140625 79.914062 L 76.613281 79.914062 L 76.613281 81.488281 C 76.613281 81.53125 76.59375 81.578125 76.558594 81.625 C 76.527344 81.667969 76.484375 81.667969 76.425781 81.667969 Z M 76.425781 81.667969 "/>
<path style=" stroke:none;fill-rule:nonzero;fill:rgb(6.27451%,6.666667%,37.64706%);fill-opacity:1;" d="M 78.257812 81.667969 C 78.199219 81.667969 78.152344 81.667969 78.117188 81.625 C 78.085938 81.578125 78.066406 81.53125 78.066406 81.488281 L 78.066406 79.78125 C 78.066406 79.734375 78.085938 79.691406 78.117188 79.648438 C 78.152344 79.648438 78.199219 79.601562 78.257812 79.601562 C 78.3125 79.601562 78.359375 79.648438 78.390625 79.648438 C 78.425781 79.691406 78.445312 79.734375 78.445312 79.78125 L 78.445312 81.488281 C 78.445312 81.53125 78.425781 81.578125 78.390625 81.625 C 78.359375 81.667969 78.3125 81.667969 78.257812 81.667969 Z M 78.257812 81.667969 "/>
<path style=" stroke:none;fill-rule:nonzero;fill:rgb(6.27451%,6.666667%,37.64706%);fill-opacity:1;" d="M 80.332031 81.710938 C 80.132812 81.710938 79.960938 81.667969 79.816406 81.578125 C 79.667969 81.488281 79.554688 81.351562 79.476562 81.21875 C 79.398438 81.039062 79.363281 80.859375 79.363281 80.632812 C 79.363281 80.410156 79.398438 80.230469 79.476562 80.09375 C 79.554688 79.914062 79.667969 79.828125 79.816406 79.734375 C 79.960938 79.648438 80.132812 79.601562 80.332031 79.601562 C 80.535156 79.601562 80.707031 79.648438 80.851562 79.734375 C 80.996094 79.828125 81.109375 79.914062 81.1875 80.09375 C 81.265625 80.230469 81.304688 80.410156 81.304688 80.632812 C 81.304688 80.859375 81.265625 81.039062 81.1875 81.21875 C 81.109375 81.351562 80.996094 81.488281 80.851562 81.578125 C 80.703125 81.667969 80.53125 81.710938 80.332031 81.710938 Z M 80.332031 81.398438 C 80.519531 81.398438 80.667969 81.351562 80.777344 81.21875 C 80.878906 81.085938 80.929688 80.90625 80.929688 80.632812 C 80.929688 80.410156 80.878906 80.230469 80.777344 80.09375 C 80.667969 79.960938 80.519531 79.914062 80.332031 79.914062 C 80.144531 79.914062 79.996094 79.960938 79.890625 80.09375 C 79.789062 80.230469 79.734375 80.410156 79.734375 80.632812 C 79.734375 80.90625 79.789062 81.085938 79.890625 81.21875 C 79.996094 81.351562 80.144531 81.398438 80.332031 81.398438 Z M 80.332031 81.398438 "/>
<path style=" stroke:none;fill-rule:nonzero;fill:rgb(6.27451%,6.666667%,37.64706%);fill-opacity:1;" d="M 83.769531 79.601562 C 83.824219 79.601562 83.867188 79.648438 83.902344 79.648438 C 83.933594 79.691406 83.949219 79.734375 83.949219 79.78125 L 83.949219 81.488281 C 83.949219 81.53125 83.933594 81.578125 83.894531 81.625 C 83.863281 81.667969 83.820312 81.667969 83.769531 81.667969 C 83.707031 81.667969 83.660156 81.667969 83.625 81.625 L 82.570312 80.230469 L 82.570312 81.488281 C 82.570312 81.53125 82.550781 81.578125 82.523438 81.625 C 82.488281 81.667969 82.445312 81.667969 82.394531 81.667969 C 82.335938 81.667969 82.292969 81.667969 82.261719 81.625 C 82.234375 81.578125 82.21875 81.53125 82.21875 81.488281 L 82.21875 79.78125 C 82.21875 79.734375 82.234375 79.691406 82.265625 79.648438 C 82.304688 79.648438 82.34375 79.601562 82.402344 79.601562 C 82.457031 79.601562 82.503906 79.648438 82.539062 79.691406 L 83.59375 81.039062 L 83.59375 79.78125 C 83.59375 79.734375 83.609375 79.691406 83.640625 79.648438 C 83.675781 79.648438 83.714844 79.601562 83.769531 79.601562 Z M 83.769531 79.601562 "/>
</g>
</svg>
